<svg xmlns="http://www.w3.org/2000/svg" xmlns:xlink="http://www.w3.org/1999/xlink" width="40" zoomAndPan="magnify" viewBox="0 0 30 30.000001" height="40" preserveAspectRatio="xMidYMid meet" version="1.0"><defs><clipPath id="8ddd5a6f61"><path d="M 28.679688 28.199219 L 29.515625 28.199219 L 29.515625 29.03125 L 28.679688 29.03125 Z M 28.679688 28.199219 " clip-rule="nonzero"/></clipPath><clipPath id="c161cc7513"><path d="M 29 29 L 29.515625 29 L 29.515625 29.03125 L 29 29.03125 Z M 29 29 " clip-rule="nonzero"/></clipPath><clipPath id="8834f6ec84"><path d="M 3.386719 2.832031 L 26.613281 2.832031 L 26.613281 26.054688 L 3.386719 26.054688 Z M 3.386719 2.832031 " clip-rule="nonzero"/></clipPath></defs><g clip-path="url(#8ddd5a6f61)"><path fill="#336db9" d="M 40.292969 34.003906 C 40.292969 37.210938 37.695312 39.808594 34.488281 39.808594 C 31.28125 39.808594 28.679688 37.210938 28.679688 34.003906 C 28.679688 30.796875 31.28125 28.199219 34.488281 28.199219 C 37.695312 28.199219 40.292969 30.796875 40.292969 34.003906 " fill-opacity="1" fill-rule="nonzero"/></g><g clip-path="url(#c161cc7513)"><path fill="#467ac6" d="M 34.488281 39.007812 C 31.726562 39.007812 29.480469 36.765625 29.480469 34.003906 C 29.480469 31.242188 31.726562 29 34.488281 29 C 37.246094 29 39.492188 31.242188 39.492188 34.003906 C 39.492188 36.765625 37.246094 39.007812 34.488281 39.007812 " fill-opacity="1" fill-rule="nonzero"/></g><g clip-path="url(#8834f6ec84)"><path fill="#336db9" d="M 26.613281 14.445312 C 26.613281 20.855469 21.414062 26.054688 15 26.054688 C 8.585938 26.054688 3.386719 20.855469 3.386719 14.445312 C 3.386719 8.03125 8.585938 2.832031 15 2.832031 C 21.414062 2.832031 26.613281 8.03125 26.613281 14.445312 " fill-opacity="1" fill-rule="nonzero"/></g><path fill="#467ac6" d="M 15 24.453125 C 9.480469 24.453125 4.988281 19.964844 4.988281 14.445312 C 4.988281 8.921875 9.480469 4.433594 15 4.433594 C 20.519531 4.433594 25.011719 8.921875 25.011719 14.445312 C 25.011719 19.964844 20.519531 24.453125 15 24.453125 " fill-opacity="1" fill-rule="nonzero"/><path fill="#dcebf9" d="M 18.972656 16.464844 L 15.414062 21.042969 C 15.304688 21.179688 15.152344 21.25 15 21.25 L 15 17.78125 L 18.660156 16.074219 C 18.90625 15.957031 19.140625 16.25 18.972656 16.464844 " fill-opacity="1" fill-rule="nonzero"/><path fill="#ffffff" d="M 15 17.78125 L 15 21.25 C 14.847656 21.25 14.695312 21.179688 14.585938 21.042969 L 11.027344 16.464844 C 10.859375 16.25 11.09375 15.957031 11.339844 16.074219 L 15 17.78125 " fill-opacity="1" fill-rule="nonzero"/><path fill="#b6d8ee" d="M 15 12.5625 L 15 16.046875 C 14.953125 16.046875 14.90625 16.039062 14.859375 16.011719 L 10.984375 14.136719 C 10.890625 14.089844 10.828125 14.007812 10.808594 13.914062 L 15 12.5625 " fill-opacity="1" fill-rule="nonzero"/><path fill="#ffffff" d="M 15 7.644531 L 15 12.5625 L 10.808594 13.914062 C 10.78125 13.824219 10.796875 13.722656 10.851562 13.636719 L 14.570312 7.882812 C 14.671875 7.722656 14.835938 7.644531 15 7.644531 " fill-opacity="1" fill-rule="nonzero"/><path fill="#dcebf9" d="M 19.191406 13.914062 L 15 12.5625 L 15 7.644531 C 15.164062 7.644531 15.328125 7.722656 15.429688 7.882812 L 19.148438 13.636719 C 19.203125 13.722656 19.21875 13.824219 19.191406 13.914062 " fill-opacity="1" fill-rule="nonzero"/><path fill="#a6c7d8" d="M 19.191406 13.914062 C 19.171875 14.007812 19.109375 14.089844 19.015625 14.136719 L 15.140625 16.011719 C 15.09375 16.039062 15.046875 16.046875 15 16.046875 L 15 12.5625 L 19.191406 13.914062 " fill-opacity="1" fill-rule="nonzero"/><path fill="#336db9" d="M 15.800781 6.472656 C 15.789062 6.472656 15.777344 6.472656 15.761719 6.46875 C 15.261719 6.421875 14.738281 6.421875 14.238281 6.46875 C 14.011719 6.488281 13.820312 6.328125 13.800781 6.109375 C 13.78125 5.890625 13.941406 5.695312 14.160156 5.671875 C 14.714844 5.621094 15.285156 5.621094 15.839844 5.671875 C 16.058594 5.695312 16.21875 5.890625 16.199219 6.109375 C 16.179688 6.316406 16.003906 6.472656 15.800781 6.472656 " fill-opacity="1" fill-rule="nonzero"/><path fill="#336db9" d="M 10.121094 7.996094 C 9.996094 7.996094 9.871094 7.9375 9.792969 7.828125 C 9.664062 7.644531 9.707031 7.398438 9.886719 7.269531 C 10.113281 7.105469 10.355469 6.953125 10.59375 6.816406 C 10.835938 6.675781 11.085938 6.546875 11.339844 6.429688 C 11.542969 6.335938 11.78125 6.425781 11.871094 6.628906 C 11.964844 6.828125 11.875 7.066406 11.675781 7.15625 C 11.441406 7.265625 11.214844 7.382812 10.996094 7.507812 C 10.777344 7.632812 10.558594 7.773438 10.351562 7.921875 C 10.28125 7.972656 10.199219 7.996094 10.121094 7.996094 " fill-opacity="1" fill-rule="nonzero"/><path fill="#336db9" d="M 7.347656 11.351562 C 7.292969 11.351562 7.238281 11.339844 7.183594 11.316406 C 6.980469 11.222656 6.894531 10.988281 6.984375 10.785156 C 7.097656 10.535156 7.230469 10.285156 7.371094 10.039062 C 7.511719 9.796875 7.664062 9.558594 7.824219 9.332031 C 7.953125 9.152344 8.203125 9.109375 8.382812 9.238281 C 8.5625 9.367188 8.605469 9.617188 8.476562 9.796875 C 8.332031 10.003906 8.191406 10.21875 8.0625 10.4375 C 7.9375 10.660156 7.820312 10.890625 7.714844 11.117188 C 7.648438 11.265625 7.5 11.351562 7.347656 11.351562 " fill-opacity="1" fill-rule="nonzero"/><path fill="#336db9" d="M 6.628906 15.644531 C 6.421875 15.644531 6.25 15.488281 6.230469 15.28125 C 6.203125 15.003906 6.191406 14.722656 6.191406 14.445312 C 6.191406 14.164062 6.203125 13.882812 6.230469 13.605469 C 6.25 13.382812 6.445312 13.222656 6.664062 13.242188 C 6.886719 13.265625 7.050781 13.460938 7.027344 13.679688 C 7.003906 13.933594 6.992188 14.191406 6.992188 14.445312 C 6.992188 14.695312 7.003906 14.953125 7.027344 15.207031 C 7.050781 15.425781 6.886719 15.621094 6.664062 15.644531 C 6.652344 15.644531 6.640625 15.644531 6.628906 15.644531 " fill-opacity="1" fill-rule="nonzero"/><path fill="#336db9" d="M 8.152344 19.722656 C 8.027344 19.722656 7.902344 19.664062 7.824219 19.554688 C 7.664062 19.328125 7.511719 19.089844 7.371094 18.847656 C 7.230469 18.601562 7.097656 18.351562 6.984375 18.101562 C 6.894531 17.902344 6.980469 17.664062 7.183594 17.570312 C 7.386719 17.480469 7.625 17.566406 7.714844 17.769531 C 7.820312 17.996094 7.9375 18.226562 8.0625 18.449219 C 8.191406 18.667969 8.332031 18.882812 8.476562 19.089844 C 8.605469 19.269531 8.5625 19.519531 8.382812 19.648438 C 8.3125 19.699219 8.230469 19.722656 8.152344 19.722656 " fill-opacity="1" fill-rule="nonzero"/><path fill="#336db9" d="M 11.507812 22.496094 C 11.453125 22.496094 11.394531 22.480469 11.339844 22.457031 C 11.089844 22.34375 10.839844 22.214844 10.59375 22.074219 C 10.355469 21.933594 10.113281 21.78125 9.886719 21.617188 C 9.707031 21.492188 9.664062 21.238281 9.792969 21.058594 C 9.921875 20.878906 10.171875 20.839844 10.351562 20.964844 C 10.558594 21.113281 10.777344 21.253906 10.996094 21.378906 C 11.21875 21.507812 11.449219 21.625 11.675781 21.730469 C 11.875 21.820312 11.964844 22.058594 11.875 22.261719 C 11.804688 22.40625 11.660156 22.496094 11.507812 22.496094 " fill-opacity="1" fill-rule="nonzero"/><path fill="#336db9" d="M 15 23.253906 C 14.722656 23.253906 14.4375 23.242188 14.160156 23.210938 C 13.941406 23.191406 13.78125 22.996094 13.800781 22.777344 C 13.820312 22.558594 14.015625 22.390625 14.238281 22.417969 C 14.742188 22.464844 15.257812 22.464844 15.761719 22.417969 C 15.984375 22.390625 16.179688 22.558594 16.199219 22.777344 C 16.21875 22.996094 16.058594 23.191406 15.839844 23.210938 C 15.5625 23.242188 15.277344 23.253906 15 23.253906 " fill-opacity="1" fill-rule="nonzero"/><path fill="#336db9" d="M 18.492188 22.496094 C 18.339844 22.496094 18.195312 22.40625 18.125 22.261719 C 18.035156 22.058594 18.125 21.820312 18.324219 21.730469 C 18.550781 21.625 18.78125 21.507812 19.003906 21.378906 C 19.222656 21.253906 19.441406 21.113281 19.648438 20.964844 C 19.828125 20.839844 20.078125 20.878906 20.207031 21.058594 C 20.335938 21.238281 20.292969 21.492188 20.113281 21.617188 C 19.886719 21.78125 19.644531 21.933594 19.40625 22.074219 C 19.160156 22.214844 18.910156 22.34375 18.660156 22.457031 C 18.605469 22.480469 18.546875 22.496094 18.492188 22.496094 " fill-opacity="1" fill-rule="nonzero"/><path fill="#336db9" d="M 21.847656 19.722656 C 21.769531 19.722656 21.6875 19.699219 21.617188 19.648438 C 21.4375 19.519531 21.394531 19.269531 21.523438 19.089844 C 21.667969 18.882812 21.808594 18.667969 21.9375 18.449219 C 22.0625 18.226562 22.179688 17.996094 22.285156 17.769531 C 22.375 17.566406 22.613281 17.480469 22.816406 17.570312 C 23.019531 17.664062 23.105469 17.902344 23.015625 18.101562 C 22.902344 18.351562 22.769531 18.601562 22.628906 18.847656 C 22.488281 19.089844 22.335938 19.328125 22.175781 19.554688 C 22.097656 19.664062 21.972656 19.722656 21.847656 19.722656 " fill-opacity="1" fill-rule="nonzero"/><path fill="#336db9" d="M 23.371094 15.644531 C 23.359375 15.644531 23.347656 15.644531 23.332031 15.644531 C 23.113281 15.621094 22.949219 15.425781 22.972656 15.207031 C 22.996094 14.953125 23.007812 14.695312 23.007812 14.445312 C 23.007812 14.191406 22.996094 13.933594 22.972656 13.679688 C 22.949219 13.460938 23.113281 13.265625 23.332031 13.242188 C 23.558594 13.222656 23.75 13.382812 23.769531 13.605469 C 23.796875 13.882812 23.808594 14.164062 23.808594 14.445312 C 23.808594 14.722656 23.796875 15.003906 23.769531 15.28125 C 23.75 15.488281 23.574219 15.644531 23.371094 15.644531 " fill-opacity="1" fill-rule="nonzero"/><path fill="#336db9" d="M 22.652344 11.351562 C 22.5 11.351562 22.351562 11.265625 22.285156 11.117188 C 22.179688 10.890625 22.0625 10.660156 21.9375 10.4375 C 21.808594 10.21875 21.667969 10.003906 21.523438 9.796875 C 21.394531 9.617188 21.4375 9.367188 21.617188 9.238281 C 21.796875 9.109375 22.046875 9.152344 22.175781 9.332031 C 22.335938 9.558594 22.488281 9.796875 22.628906 10.039062 C 22.769531 10.285156 22.902344 10.535156 23.015625 10.785156 C 23.105469 10.988281 23.019531 11.222656 22.816406 11.316406 C 22.761719 11.339844 22.707031 11.351562 22.652344 11.351562 " fill-opacity="1" fill-rule="nonzero"/><path fill="#336db9" d="M 19.878906 7.996094 C 19.800781 7.996094 19.71875 7.972656 19.648438 7.921875 C 19.441406 7.773438 19.222656 7.632812 19.003906 7.507812 C 18.785156 7.382812 18.558594 7.265625 18.324219 7.15625 C 18.125 7.066406 18.035156 6.828125 18.128906 6.628906 C 18.21875 6.425781 18.457031 6.335938 18.660156 6.429688 C 18.914062 6.546875 19.164062 6.675781 19.40625 6.816406 C 19.644531 6.953125 19.886719 7.105469 20.113281 7.269531 C 20.292969 7.398438 20.335938 7.644531 20.207031 7.828125 C 20.128906 7.9375 20.003906 7.996094 19.878906 7.996094 " fill-opacity="1" fill-rule="nonzero"/></svg>